<svg width="588" height="496" viewBox="0 0 588 496" fill="none" xmlns="http://www.w3.org/2000/svg">
<path d="M233.59 135.48L288.25 85.7702C288.25 85.7702 278 68.3902 264.92 80.1502C261 83.6802 250.1 93.5402 246.27 97.1602L220.64 121.37C218.21 123.66 215.74 125.37 213.22 126.5C210.7 127.63 208.23 128.19 205.82 128.17C203.4 128.16 201.05 127.58 198.76 126.43C196.47 125.28 194.31 123.57 192.28 121.3C190.28 119.07 188.8 116.74 187.83 114.31C186.87 111.88 186.46 109.39 186.62 106.84C186.78 104.29 187.55 101.72 188.95 99.1202C190.34 96.5202 192.41 93.9202 195.16 91.3202L250.2 39.3202C267.93 22.5702 242.14 -0.00976562 242.14 -0.00976562C243.91 23.0402 180.99 78.0602 180.99 78.0602C176.56 82.2402 173.28 86.5402 171.14 90.9602C169 95.3802 167.93 99.8602 167.91 104.4C167.89 108.94 168.93 113.5 171.03 118.07C173.12 122.64 176.17 127.16 180.17 131.62C184.43 136.37 188.81 140 193.31 142.51C197.8 145.02 202.32 146.42 206.88 146.71C211.43 147 215.96 146.2 220.46 144.31C224.96 142.42 229.34 139.47 233.59 135.45V135.48Z" fill="url(#paint0_linear_274_22)"/>
<path d="M320.98 83.5293C328.51 101.889 309.06 119.079 309.06 119.079L266.98 158.839C259.2 166.189 258.69 178.599 265.84 186.569C265.84 186.569 307.97 146.769 322.01 133.499C348.84 108.149 320.99 83.5293 320.99 83.5293H320.98Z" fill="url(#paint1_linear_274_22)"/>
<path d="M77.3201 333.79C73.3401 332.23 68.6901 331.2 63.5001 330.73C58.4701 330.27 52.8701 330.08 46.8901 330.17C42.1801 330.16 38.7501 330.1 36.7001 329.99C34.8001 329.9 32.8301 329.58 30.8501 329.06C29.0601 328.59 27.5801 327.88 26.4301 326.95C25.4301 326.14 24.7701 325.04 24.4101 323.61C23.8201 321.25 24.5401 318.93 26.5901 316.52C28.8401 313.88 32.3301 311.95 36.9801 310.79C41.9601 309.55 45.7501 309.52 48.2201 310.72C50.9301 312.02 53.5601 314.21 56.0601 317.21L56.1301 317.29C58.4001 319.81 60.3601 321.52 62.1101 322.53C64.2201 323.74 66.8001 323.98 69.8001 323.23C73.1101 322.41 75.5901 320.44 77.1801 317.38C78.7101 314.44 79.0901 311.41 78.3401 308.36C77.5901 305.31 76.0301 302.42 73.7201 299.68C71.4401 296.98 68.3101 294.63 64.4201 292.69C60.5501 290.76 55.9701 289.56 50.8001 289.13C45.6801 288.7 39.8401 289.29 33.4501 290.88C25.4801 292.87 18.7201 295.85 13.3501 299.74C7.84009 303.74 3.98009 308.55 1.87009 314.03C-0.259914 319.55 -0.579914 325.39 0.920086 331.41C2.42009 337.43 5.43009 342.7 9.67009 346.23C13.8101 349.68 18.8601 352.01 24.6801 353.13C30.2301 354.2 36.9701 354.69 44.7301 354.58C50.2801 354.47 54.8001 354.56 58.1601 354.85C61.1901 355.11 63.8301 355.91 65.9901 357.24C67.9301 358.43 69.1801 360.29 69.8401 362.93C70.6701 366.27 69.8601 369.38 67.3501 372.44C64.6901 375.69 60.6001 378.02 55.2101 379.37C51.2901 380.35 47.9901 380.53 45.4001 379.92C42.8201 379.31 40.6701 378.25 39.0001 376.79C37.1501 375.16 35.2301 372.98 33.3101 370.31C31.3701 367.57 29.2901 365.58 27.1201 364.39C24.7001 363.07 22.0601 362.75 19.2601 363.45C15.9101 364.28 13.3801 366.13 11.7401 368.94C10.1201 371.73 9.69009 374.73 10.4701 377.87C11.6401 382.58 14.4201 387.04 18.7301 391.14C22.9701 395.18 27.9601 398.08 33.5701 399.74C41.3301 401.99 50.4701 401.84 60.7401 399.28C69.2901 397.15 76.4701 393.82 82.0601 389.38C87.7601 384.86 91.7001 379.49 93.7701 373.44C95.8401 367.38 96.0701 361 94.4401 354.48C93.0901 349.04 90.9101 344.6 87.9801 341.26C85.0501 337.92 81.4601 335.41 77.3001 333.78L77.3201 333.79Z" fill="url(#paint2_radial_274_22)"/>
<path d="M166.82 279.459C164.81 276.559 163.13 274.199 161.84 272.449C160.46 270.569 158.89 268.859 157.18 267.339C155.3 265.689 153.07 264.489 150.53 263.779C147.94 263.059 144.97 263.109 141.72 263.919C138.47 264.729 135.89 266.059 133.94 267.919C132.02 269.739 130.61 271.879 129.75 274.279C128.96 276.469 128.36 279.119 127.96 282.169C127.59 285.039 127.27 287.489 127.01 289.529L117.63 360.719C117.22 363.669 116.97 365.899 116.87 367.559C116.76 369.389 116.91 371.139 117.32 372.759C118.09 375.849 120.03 378.299 123.1 380.039C126.12 381.759 129.29 382.229 132.51 381.419C136.35 380.459 138.92 378.519 140.14 375.629C141.13 373.289 141.93 369.349 142.58 363.579L143.95 351.429L180.95 342.209L187.83 352.099C188.85 353.489 190.08 355.119 191.48 356.929C193.02 358.929 194.36 360.359 195.57 361.289C196.89 362.309 198.4 363.019 200.06 363.389C201.74 363.759 203.6 363.699 205.59 363.209C209.01 362.359 211.68 360.389 213.5 357.359C215.32 354.329 215.86 351.259 215.11 348.239C214.46 345.639 212.44 342.089 208.95 337.379L166.82 279.459ZM168.5 323.659L146.07 329.249L149.46 295.499L168.5 323.659Z" fill="url(#paint3_radial_274_22)"/>
<path d="M297.63 279.11C303.99 272.13 306.05 263.95 303.76 254.74C302.96 251.54 301.66 248.59 299.89 245.97C298.12 243.35 295.9 241.07 293.31 239.18C290.72 237.31 287.9 235.9 284.93 235.01C281.43 233.92 277.65 233.53 273.68 233.83C269.9 234.12 265.51 234.89 260.62 236.1L228.26 244.16C223.25 245.41 219.79 247.58 217.97 250.61C216.15 253.64 215.87 257.76 217.14 262.86L235.84 337.93C237.08 342.91 239.22 346.39 242.18 348.27C245.19 350.18 249.31 350.5 254.43 349.22L284.95 341.62C290.31 340.29 295.01 338.83 298.92 337.28C302.94 335.69 306.45 333.79 309.4 331.6C314.13 327.94 317.5 323.21 319.41 317.54C321.31 311.89 321.51 305.95 320 299.88C317.13 288.36 309.62 281.39 297.63 279.1V279.11ZM249.04 282.54L243.9 261.92L257.72 258.48C264.66 256.75 270.01 256.22 273.61 256.91C275.46 257.26 278.08 258.35 279.4 263.64C279.87 265.54 279.85 267.31 279.33 269.05L279.3 269.15C278.68 271.54 277.43 273.33 275.49 274.6C273.24 276.07 269.71 277.41 264.98 278.59L249.05 282.56L249.04 282.54ZM293.93 304.79C295.23 310.02 295.11 317.44 279.06 321.44L259.93 326.21L253.96 302.25L272.41 297.65C278.91 296.03 284.03 295.83 287.63 297.04C290.84 298.13 292.91 300.66 293.94 304.8L293.93 304.79Z" fill="url(#paint4_radial_274_22)"/>
<path d="M402.01 206.12C393.13 203.66 383.17 203.76 372.41 206.44C364.49 208.41 357.6 211.47 351.95 215.53C346.25 219.62 341.72 224.67 338.48 230.53C335.25 236.37 333.3 243.03 332.66 250.32C332.03 257.53 332.71 265.21 334.69 273.14C336.62 280.87 339.55 287.9 343.4 294.04C347.3 300.25 352.1 305.31 357.66 309.06C363.25 312.83 369.72 315.26 376.89 316.3C384.01 317.33 391.73 316.82 399.84 314.8C407.99 312.77 415.03 309.63 420.76 305.48C426.54 301.29 431.09 296.12 434.3 290.11C437.49 284.13 439.38 277.47 439.92 270.29C440.45 263.2 439.72 255.57 437.74 247.61C435.05 236.81 430.65 227.75 424.67 220.67C418.6 213.49 410.98 208.59 402.02 206.1L402.01 206.12ZM377.7 227.72C382.85 226.44 387.78 226.54 392.34 228.03C396.86 229.51 400.86 232.45 404.2 236.76C407.65 241.21 410.27 246.98 412 253.89C413.86 261.37 414.23 268.01 413.1 273.63C411.99 279.12 409.76 283.56 406.47 286.83C403.14 290.14 399.08 292.4 394.41 293.57C390.75 294.48 387.19 294.65 383.82 294.06C380.47 293.48 377.24 292.1 374.22 289.97C371.18 287.83 368.43 284.76 366.06 280.87C363.64 276.89 361.73 272.14 360.39 266.75C359.06 261.41 358.53 256.38 358.82 251.8C359.1 247.31 360.05 243.41 361.63 240.23C363.19 237.09 365.36 234.42 368.08 232.3C370.82 230.17 374.06 228.62 377.72 227.71L377.7 227.72Z" fill="url(#paint5_radial_274_22)"/>
<path d="M556.95 255.81C554.61 252.69 551.55 249.27 547.86 245.63C544.15 241.98 540.09 238.61 535.79 235.63C533.32 233.92 530.84 232.5 528.38 231.4C534.14 227.8 538.36 223.66 540.96 219.03C544.38 212.94 545.1 205.75 543.08 197.65C542.1 193.72 540.47 190.1 538.23 186.91C535.97 183.69 533.14 181.02 529.83 178.98C526.53 176.96 522.94 175.63 519.16 175.04C516.03 174.46 512.64 174.4 509.07 174.85C505.66 175.28 501.58 176.08 496.96 177.23L464.06 185.43C459.01 186.69 455.51 188.88 453.67 191.94C451.83 195 451.54 199.11 452.8 204.16L471.94 281C473.1 285.66 475.11 289.04 477.92 291.06C480.87 293.18 484.4 293.75 488.4 292.75C492.13 291.82 494.9 289.76 496.64 286.64C498.34 283.58 498.58 279.55 497.36 274.67L490.01 245.18L494.5 244.06C497.74 243.25 500.52 243 502.76 243.32C504.93 243.63 507.34 244.68 509.92 246.45C512.7 248.36 516.14 251.4 520.16 255.5L531.63 266.97C534.39 269.74 536.5 271.77 538.07 273.17C539.83 274.74 541.79 275.94 543.9 276.74C546.22 277.61 548.82 277.71 551.61 277.01C553.93 276.43 555.9 275.44 557.49 274.04C559.1 272.62 560.26 270.92 560.93 268.98C561.62 266.99 561.73 265.05 561.28 263.23C560.86 261.55 559.52 259.26 556.94 255.82L556.95 255.81ZM517.37 212.49C516.38 214.44 514.57 216.13 511.97 217.53C509.08 219.08 505.26 220.45 500.64 221.61L485.12 225.48L479.57 203.22L495.64 199.22C503.82 197.18 507.37 197.04 508.92 197.29C511.17 197.63 513.01 198.49 514.56 199.9C516.11 201.31 517.14 203.1 517.7 205.36C518.42 208.24 518.31 210.65 517.37 212.5V212.49Z" fill="url(#paint6_radial_274_22)"/>
<path d="M410.32 381.221C412.38 381.961 414.63 382.031 417 381.441C418.67 381.021 420.22 380.271 421.62 379.191C422.87 378.231 423.98 377.131 424.93 375.911C425.98 374.561 426.72 373.071 427.14 371.481C427.59 369.771 427.63 368.141 427.27 366.661C426.4 363.161 424.47 361.651 423 361.001C421.19 360.201 419.12 360.081 416.85 360.651C415.33 361.031 413.8 361.681 412.3 362.581C410.79 363.491 409.46 364.611 408.37 365.901C407.27 367.191 406.41 368.581 405.81 370.031C405.05 371.871 404.89 373.681 405.33 375.431C406.04 378.271 407.81 380.331 410.33 381.231L410.32 381.221Z" fill="url(#paint7_linear_274_22)"/>
<path d="M129.36 139.549C121.79 144.669 113.26 151.029 104.34 158.769C77.5701 181.989 42.0101 222.579 24.6401 284.069C24.6401 284.069 30.1801 280.659 37.9301 281.659C82.5401 191.959 181.5 145.209 181.74 145.109C181.74 145.109 171.67 141.219 162.48 120.689C161.76 120.999 146.46 127.979 129.36 139.539V139.549Z" fill="url(#paint8_linear_274_22)"/>
<path d="M316.33 87.8904C316.34 83.3504 315.27 78.7904 313.12 74.2104C310.97 69.6304 307.84 65.1104 303.73 60.6504C299.35 55.8904 294.85 52.2604 290.24 49.7404C285.63 47.2304 280.99 45.8204 276.32 45.5204C271.65 45.2204 267.01 46.0204 262.39 47.9004C257.77 49.7904 253.29 52.7304 248.93 56.7404L207.48 94.9404L195.74 105.76C195.74 105.76 204.83 122.79 218.24 111.05C222.26 107.53 232.04 98.6704 235.97 95.0504L262.24 70.8704C264.73 68.5804 267.26 66.8704 269.84 65.7504C272.42 64.6204 274.95 64.0704 277.43 64.0804C279.91 64.0904 282.33 64.6804 284.67 65.8304C287.02 66.9804 289.23 68.6904 291.32 70.9604C293.38 73.1904 294.9 75.5204 295.89 77.9604C296.88 80.3904 297.3 82.8804 297.14 85.4304C296.98 87.9804 296.19 90.5504 294.76 93.1504C293.33 95.7504 291.21 98.3404 288.39 100.94L231.98 152.88C230.5 154.24 229.32 155.64 228.39 157.07C221.93 167.01 228 178.09 233.58 185.1C236.47 188.73 248.54 206.12 245.93 215.47C245.93 215.47 260.36 199.43 254.24 182.24C251.27 173.92 249.04 168.47 254.74 161.72C273.22 139.82 303.57 118.23 313.03 101.32C315.44 97.0204 316.32 92.4304 316.33 87.8904Z" fill="url(#paint9_linear_274_22)"/>
<path d="M385.12 90.331C393.91 92.821 404.17 95.811 414.9 100.741C463.46 123.041 495.63 166.971 495.63 166.971L480.83 170.421C428 111.281 344.02 113.141 343.77 113.121C343.77 113.121 344.91 97.861 334.04 83.541H336.19C336.97 83.601 365.24 84.721 385.11 90.341L385.12 90.331Z" fill="url(#paint10_linear_274_22)"/>
<path d="M221.77 476.919C212.63 476.919 202.01 476.429 190.28 475.009C155.09 470.769 90.3299 452.269 45.3999 408.509C55.3799 408.369 60.7599 406.619 60.7599 406.619C147.97 455.929 263.75 443.479 264 443.429L261.73 474.449C260.96 474.599 242.42 476.919 221.77 476.919Z" fill="url(#paint11_linear_274_22)"/>
<path d="M341.51 397.629C343.11 392.719 343.2 387.309 341.76 381.539C340.42 376.139 337.85 371.659 334.15 368.219C330.61 364.929 326.43 362.419 321.73 360.749C317.13 359.119 312.16 358.259 306.96 358.209C301.85 358.149 296.92 358.709 292.31 359.859C288.98 360.689 285.71 361.809 282.61 363.199C279.59 364.549 276.66 366.049 273.91 367.659C271.19 369.249 268.65 370.869 266.36 372.459C264.09 374.039 262.08 375.479 260.4 376.739L258.46 378.189L259.04 380.539C259.34 381.739 260.05 382.789 261.15 383.649C261.88 384.219 262.73 384.709 263.67 385.079C264.4 385.379 265.12 385.629 265.79 385.839C267.01 386.209 268.07 386.279 269.03 386.039C270.13 385.769 271.16 385.089 272.7 383.619C273.63 382.739 274.85 381.649 276.35 380.369C277.81 379.119 279.55 377.789 281.53 376.399C281.6 376.349 281.67 376.299 281.74 376.259C280.6 383.089 279.6 389.709 278.77 396.039C277.63 404.699 276.63 413.419 275.78 421.979C274.93 430.609 274.16 439.539 273.5 448.499C272.83 457.539 272.16 467.339 271.52 477.619C271.34 479.079 271.22 480.679 271.16 482.369C271.08 484.369 271.22 486.039 271.58 487.469C272.17 489.819 273.83 492.969 278.42 494.549C281.55 495.629 284.78 495.769 288.02 494.959L290.68 494.299L290.78 491.559C291.08 483.099 291.36 473.519 291.62 463.089C291.85 453.559 292.16 443.709 292.54 433.769C294.15 433.319 296.31 432.659 298.98 431.779C302.43 430.649 306.26 429.089 310.36 427.159C314.47 425.219 318.66 422.859 322.82 420.159C327.12 417.369 330.94 414.099 334.16 410.449C337.49 406.679 339.96 402.369 341.51 397.649V397.629ZM305.55 368.689C308.58 368.799 311.38 369.379 313.88 370.409C316.29 371.409 318.36 372.929 320.2 375.049C322.01 377.139 323.35 379.899 324.19 383.249C325.41 388.169 325.23 392.619 323.62 396.849C321.95 401.259 319.34 405.299 315.88 408.859C312.32 412.519 308.03 415.729 303.13 418.419C299.74 420.279 296.31 421.879 292.86 423.199C293.29 413.459 293.91 403.949 294.71 394.869C295.56 385.229 296.78 376.609 298.35 369.209C300.74 368.779 303.16 368.599 305.55 368.689Z" fill="url(#paint12_radial_274_22)"/>
<path d="M578.54 374.14L577.52 378.28C576.59 382.06 575.3 385.77 573.68 389.31C572.06 392.85 570.18 396.12 568.07 399.04C566.03 401.86 563.72 404.28 561.21 406.21C558.81 408.06 556.26 409.32 553.62 409.98C551.9 410.41 550.45 410.5 549.29 410.26C548.15 410.02 547.24 409.62 546.51 409.02C545.72 408.38 545.1 407.6 544.61 406.66C544.03 405.53 543.58 404.35 543.28 403.14C543.12 402.48 542.98 401.76 542.88 400.98C546.38 399.52 549.83 397.63 553.17 395.33C557.35 392.45 561.04 389.13 564.13 385.46C567.3 381.7 569.69 377.65 571.22 373.42C572.86 368.9 573.13 364.35 572.02 359.92C570.79 354.99 568.4 351.92 564.91 350.81C562.05 349.9 559.13 349.81 556.21 350.54C552.79 351.39 549.52 353 546.5 355.31C543.64 357.5 540.95 360.17 538.51 363.26C536.09 366.32 533.95 369.72 532.15 373.39C530.36 377.02 528.9 380.79 527.81 384.58C526.71 388.42 526.03 392.26 525.78 396.02C525.68 397.66 525.67 399.26 525.76 400.82C525.12 403.22 524.36 405.52 523.5 407.68C522.53 410.08 521.39 412.15 520.1 413.82C519.1 415.11 518.01 415.89 516.75 416.2C516.45 416.28 516.24 416.3 516.12 416.3C515.84 415.97 515.63 415.53 515.48 414.94C515.17 413.71 515.05 412.17 515.13 410.36C515.22 408.19 515.3 405.92 515.39 403.54C515.48 401.12 515.54 398.7 515.58 396.36C515.62 393.69 515.36 391.19 514.8 388.93C513.99 385.68 512.46 383 510.23 380.95C508.41 379.27 505.09 377.56 499.62 378.93C496.44 379.72 493.61 381.31 491.22 383.66C489.07 385.77 487.12 388.31 485.42 391.21C485.35 391.33 485.28 391.44 485.22 391.56C485.05 390.5 484.84 389.47 484.59 388.47C483.69 384.87 482.2 381.85 480.14 379.48C478.32 377.39 474.98 375.19 469.41 376.58C466.12 377.4 462.98 379.29 460.09 382.19C457.46 384.83 455.03 388.03 452.86 391.71C451.68 393.72 450.54 395.82 449.47 398C449.42 397.74 449.37 397.5 449.31 397.27C448.18 392.72 444.59 390.62 439.95 391.77C437.99 392.26 436.21 393.22 434.65 394.64C433.2 395.96 432.19 397.21 431.56 398.46L430.95 399.67L431.28 400.98C432.01 403.92 432.38 407.56 432.36 411.78C432.36 413.04 432.34 414.29 432.31 415.53C431.4 419.63 430.36 423.2 429.22 426.13C428.01 429.23 426.73 431.83 425.39 433.86C424.14 435.77 422.87 437.23 421.61 438.21C420.45 439.12 419.27 439.72 418.1 440.01C416.66 440.37 415.55 440.37 414.96 440.01C414.96 440.01 414 439.33 413.08 435.6C412.34 432.64 412.25 429.27 412.81 425.58C413.42 421.57 414.24 417.65 415.28 413.93C416.33 410.13 417.34 406.64 418.29 403.55C419.48 399.66 419.8 397.07 419.32 395.17C418.65 392.48 417.05 391.19 415.82 390.58C414.28 389.82 412.56 389.65 410.85 390.07C408.29 390.71 406.06 392.4 404.21 395.1C402.68 397.33 401.37 400.05 400.31 403.21C399.29 406.23 398.47 409.56 397.87 413.12C397.29 416.59 396.85 420.1 396.59 423.55C396.48 424.94 396.41 426.29 396.36 427.61C396.01 428.77 395.58 429.99 395.05 431.29C393.91 434.1 392.49 436.84 390.85 439.44C389.25 441.97 387.44 444.22 385.47 446.12C383.75 447.78 382.01 448.83 380.29 449.26C379.91 449.35 379.63 449.36 379.42 449.33C379.35 449.18 379.27 448.94 379.18 448.58C378.9 447.47 378.89 446.08 379.12 444.45L380.1 437.7C380.45 435.28 380.74 432.74 380.96 430.14C381.2 427.24 380.99 424.44 380.34 421.8C379.36 417.86 377.48 414.78 374.76 412.65C372.45 410.84 370.01 409.38 367.51 408.3C365.27 407.33 363.18 406.46 361.29 405.71C360.71 405.48 360.42 405.27 360.28 405.15C360.3 404.74 360.35 404.27 360.43 403.75C360.55 402.92 360.62 402.17 360.64 401.45C360.66 400.53 360.6 399.8 360.44 399.18C360.27 398.49 359.97 397.65 359.5 396.55C358.42 393.99 355.89 392.79 353.07 393.49C351.89 393.78 350.83 394.52 349.74 395.81C348.94 396.75 348.23 397.91 347.63 399.28C347.02 400.65 346.6 402.19 346.37 403.87C346.12 405.68 346.24 407.57 346.72 409.49C347.1 411.02 347.84 412.36 348.89 413.45C348.66 418.15 348.29 422.93 347.8 427.7C347.24 433.1 346.58 438.19 345.84 442.82C345.1 447.44 344.29 451.53 343.44 454.96C342.4 459.14 341.7 461.11 341.31 462.02L340.07 464.85L348.57 470.37L350.45 466.93C351.49 465.03 352.42 462.21 353.29 458.3C354.09 454.71 354.89 450.48 355.66 445.76C356.43 441.06 357.14 435.87 357.76 430.32C358.2 426.44 358.58 422.5 358.91 418.57C359.41 418.8 359.9 419.05 360.37 419.33C361.03 419.73 361.59 420.24 362.09 420.88C362.56 421.49 362.93 422.34 363.2 423.42C363.58 424.97 363.67 426.81 363.46 428.9C363.21 431.35 362.87 433.9 362.45 436.48C362 439.24 361.65 442 361.42 444.67C361.15 447.68 361.33 450.5 361.97 453.05C362.93 456.92 365.08 459.79 368.36 461.58C371.54 463.32 375.3 463.67 379.55 462.61C383.24 461.69 386.67 459.88 389.77 457.24C392.67 454.76 395.31 451.81 397.63 448.48C398.17 447.71 398.68 446.92 399.17 446.11C400.29 448.15 401.75 449.91 403.56 451.33C406.95 454 411.19 454.72 416.16 453.49C419.44 452.67 422.6 451.19 425.54 449.09C427.6 447.61 429.51 445.83 431.25 443.78C431.7 444.72 432.65 445.85 434.62 446.42C435.49 446.67 436.47 446.86 437.53 446.99C438.56 447.11 439.67 447.15 440.85 447.11C442.1 447.06 443.17 446.93 444.1 446.69L446.6 446.07L446.84 443.5C447.34 438.29 448.4 432.8 450.01 427.19C451.64 421.51 453.52 416.22 455.61 411.48C457.67 406.79 459.85 402.79 462.1 399.58C464.48 396.17 466.06 395.33 466.72 395.12C466.95 395.48 467.25 396.1 467.5 397.13C468.06 399.36 468.3 402.29 468.23 405.84C468.15 409.63 467.97 413.38 467.7 416.98C467.42 420.57 467.12 423.85 466.8 426.73C466.34 430.88 466.41 432.4 466.66 433.4C466.9 434.35 467.64 436.08 469.97 437.02C470.99 437.43 472.17 437.67 473.49 437.73C474.58 437.77 475.67 437.73 476.74 437.59C477.76 437.46 478.61 437.31 479.33 437.13L481.52 436.59L482.01 434.39C482.52 432.09 483.02 429.57 483.5 426.9C483.94 424.43 484.63 421.88 485.56 419.3C488.37 411.19 490.77 404.84 492.69 400.43C494.75 395.68 496.4 394.94 496.86 394.83C496.96 394.81 497.12 394.77 497.46 394.93C497.54 395.03 497.8 395.43 498.05 396.43C498.34 397.59 498.48 398.93 498.45 400.39C498.43 402.1 498.35 403.92 498.21 405.82C498.07 407.87 498.01 409.96 498.03 412.04C498.06 414.29 498.33 416.47 498.83 418.5C499.76 422.22 501.6 425.23 504.31 427.45C506.39 429.16 510.08 430.9 515.82 429.47C519.41 428.58 522.59 426.76 525.27 424.06C527.56 421.75 529.52 419.02 531.1 415.92C532.4 417.5 533.94 418.89 535.7 420.07C540.39 423.2 546.33 423.9 553.34 422.15C557.39 421.14 561.31 419.35 565 416.81C568.62 414.32 571.92 411.24 574.81 407.64C577.66 404.09 580.15 399.97 582.23 395.42C584.3 390.86 585.82 385.91 586.74 380.71L587.24 377.85L578.53 374.17L578.54 374.14ZM558.24 362.42C558.79 364.78 558.55 367.2 557.5 369.8C556.28 372.83 554.53 375.8 552.29 378.64C549.97 381.58 547.41 384.28 544.68 386.67C544.34 386.97 544 387.26 543.66 387.55C543.86 386.6 544.08 385.65 544.33 384.68C545.33 380.86 546.67 377.25 548.29 373.97C549.87 370.77 551.68 368.01 553.66 365.78C555.21 364.04 556.74 362.91 558.24 362.41V362.42Z" fill="url(#paint13_radial_274_22)"/>
<defs>
<linearGradient id="paint0_linear_274_22" x1="167.93" y1="73.3902" x2="288.25" y2="73.3902" gradientUnits="userSpaceOnUse">
<stop stop-color="#D4942C"/>
<stop offset="1" stop-color="#FFCD74"/>
</linearGradient>
<linearGradient id="paint1_linear_274_22" x1="260.79" y1="135.049" x2="333.67" y2="135.049" gradientUnits="userSpaceOnUse">
<stop stop-color="#D4942C"/>
<stop offset="1" stop-color="#FFCD74"/>
</linearGradient>
<radialGradient id="paint2_radial_274_22" cx="0" cy="0" r="1" gradientUnits="userSpaceOnUse" gradientTransform="translate(-24.4399 360.62) scale(703.64 703.64)">
<stop stop-color="#D4942C"/>
<stop offset="1" stop-color="#FFCD74"/>
</radialGradient>
<radialGradient id="paint3_radial_274_22" cx="0" cy="0" r="1" gradientUnits="userSpaceOnUse" gradientTransform="translate(-24.4401 0.499381) scale(703.64 703.64)">
<stop stop-color="#D4942C"/>
<stop offset="1" stop-color="#FFCD74"/>
</radialGradient>
<radialGradient id="paint4_radial_274_22" cx="0" cy="0" r="1" gradientUnits="userSpaceOnUse" gradientTransform="translate(-24.44 0.500128) scale(703.64 703.64)">
<stop stop-color="#D4942C"/>
<stop offset="1" stop-color="#FFCD74"/>
</radialGradient>
<radialGradient id="paint5_radial_274_22" cx="0" cy="0" r="1" gradientUnits="userSpaceOnUse" gradientTransform="translate(-24.4401 360.62) scale(703.64 703.64)">
<stop stop-color="#D4942C"/>
<stop offset="1" stop-color="#FFCD74"/>
</radialGradient>
<radialGradient id="paint6_radial_274_22" cx="0" cy="0" r="1" gradientUnits="userSpaceOnUse" gradientTransform="translate(-24.4402 360.62) scale(703.64 703.64)">
<stop stop-color="#D4942C"/>
<stop offset="1" stop-color="#FFCD74"/>
</radialGradient>
<linearGradient id="paint7_linear_274_22" x1="405.09" y1="371.071" x2="427.52" y2="371.071" gradientUnits="userSpaceOnUse">
<stop stop-color="#D4942C"/>
<stop offset="1" stop-color="#FFCD74"/>
</linearGradient>
<linearGradient id="paint8_linear_274_22" x1="24.6401" y1="202.379" x2="181.74" y2="202.379" gradientUnits="userSpaceOnUse">
<stop stop-color="#D4942C"/>
<stop offset="1" stop-color="#FFCD74"/>
</linearGradient>
<linearGradient id="paint9_linear_274_22" x1="145.7" y1="130.96" x2="537.63" y2="129.27" gradientUnits="userSpaceOnUse">
<stop stop-color="#65915C"/>
<stop offset="1" stop-color="#91D685"/>
</linearGradient>
<linearGradient id="paint10_linear_274_22" x1="145.69" y1="128.101" x2="537.62" y2="126.411" gradientUnits="userSpaceOnUse">
<stop stop-color="#65915C"/>
<stop offset="1" stop-color="#91D685"/>
</linearGradient>
<linearGradient id="paint11_linear_274_22" x1="45.0099" y1="441.769" x2="264" y2="441.769" gradientUnits="userSpaceOnUse">
<stop stop-color="#91D685"/>
<stop offset="1" stop-color="#65915C"/>
</linearGradient>
<radialGradient id="paint12_radial_274_22" cx="0" cy="0" r="1" gradientUnits="userSpaceOnUse" gradientTransform="translate(261.34 481.399) scale(407.71 407.71)">
<stop stop-color="#65915C"/>
<stop offset="1" stop-color="#91D685"/>
</radialGradient>
<radialGradient id="paint13_radial_274_22" cx="0" cy="0" r="1" gradientUnits="userSpaceOnUse" gradientTransform="translate(261.34 481.4) scale(407.71 407.71)">
<stop stop-color="#65915C"/>
<stop offset="1" stop-color="#91D685"/>
</radialGradient>
</defs>
</svg>
